<svg width="2545" height="526" viewBox="0 0 2545 526" fill="none" xmlns="http://www.w3.org/2000/svg">
<path d="M628.28 416V88.7273H687.566V366.302H831.707V416H628.28ZM984.771 420.794C960.161 420.794 938.908 415.68 921.01 405.453C903.219 395.119 889.529 380.524 879.941 361.668C870.353 342.705 865.559 320.386 865.559 294.711C865.559 269.462 870.353 247.303 879.941 228.234C889.636 209.058 903.165 194.143 920.531 183.489C937.896 172.729 958.297 167.349 981.734 167.349C996.862 167.349 1011.14 169.8 1024.56 174.7C1038.09 179.494 1050.02 186.952 1060.36 197.072C1070.8 207.193 1079 220.084 1084.97 235.744C1090.93 251.298 1093.91 269.835 1093.91 291.355V309.093H892.725V270.102H1038.46C1038.36 259.022 1035.96 249.168 1031.27 240.538C1026.59 231.803 1020.03 224.931 1011.62 219.924C1003.31 214.917 993.613 212.413 982.533 212.413C970.708 212.413 960.321 215.29 951.372 221.043C942.423 226.689 935.445 234.146 930.438 243.415C925.538 252.577 923.034 262.644 922.928 273.617V307.655C922.928 321.93 925.538 334.182 930.758 344.409C935.978 354.53 943.276 362.307 952.651 367.74C962.026 373.067 972.999 375.73 985.57 375.73C993.986 375.73 1001.6 374.558 1008.42 372.214C1015.24 369.764 1021.15 366.195 1026.16 361.508C1031.17 356.82 1034.95 351.014 1037.5 344.089L1091.52 350.162C1088.11 364.437 1081.61 376.902 1072.02 387.555C1062.54 398.102 1050.4 406.305 1035.59 412.165C1020.78 417.918 1003.84 420.794 984.771 420.794ZM1208.99 420.954C1193.43 420.954 1179.42 418.184 1166.96 412.644C1154.6 406.998 1144.8 398.688 1137.55 387.715C1130.42 376.742 1126.85 363.212 1126.85 347.126C1126.85 333.276 1129.41 321.824 1134.52 312.768C1139.63 303.713 1146.61 296.469 1155.45 291.036C1164.29 285.602 1174.26 281.501 1185.34 278.731C1196.52 275.854 1208.08 273.777 1220.01 272.499C1234.39 271.007 1246.06 269.675 1255.01 268.504C1263.96 267.225 1270.46 265.308 1274.5 262.751C1278.66 260.087 1280.74 255.986 1280.74 250.446V249.487C1280.74 237.449 1277.17 228.127 1270.03 221.522C1262.89 214.917 1252.61 211.614 1239.19 211.614C1225.02 211.614 1213.78 214.704 1205.47 220.883C1197.27 227.062 1191.73 234.359 1188.85 242.776L1134.84 235.105C1139.1 220.19 1146.13 207.726 1155.93 197.712C1165.73 187.591 1177.72 180.027 1191.89 175.02C1206.06 169.906 1221.72 167.349 1238.87 167.349C1250.69 167.349 1262.47 168.734 1274.18 171.504C1285.9 174.274 1296.61 178.855 1306.3 185.247C1316 191.533 1323.78 200.109 1329.64 210.975C1335.6 221.842 1338.58 235.425 1338.58 251.724V416H1282.97V382.282H1281.06C1277.54 389.1 1272.59 395.492 1266.19 401.458C1259.91 407.317 1251.97 412.058 1242.38 415.68C1232.9 419.196 1221.77 420.954 1208.99 420.954ZM1224.01 378.447C1235.62 378.447 1245.69 376.156 1254.21 371.575C1262.73 366.888 1269.28 360.709 1273.87 353.038C1278.55 345.368 1280.9 337.005 1280.9 327.95V299.026C1279.09 300.517 1276 301.902 1271.63 303.18C1267.37 304.459 1262.57 305.577 1257.25 306.536C1251.92 307.495 1246.65 308.347 1241.43 309.093C1236.21 309.839 1231.68 310.478 1227.84 311.011C1219.21 312.183 1211.49 314.1 1204.67 316.763C1197.85 319.427 1192.47 323.156 1188.53 327.95C1184.59 332.637 1182.62 338.71 1182.62 346.167C1182.62 356.82 1186.51 364.864 1194.28 370.297C1202.06 375.73 1211.97 378.447 1224.01 378.447ZM1392.25 416V170.545H1448.34V211.455H1450.9C1455.37 197.286 1463.04 186.366 1473.91 178.695C1484.88 170.918 1497.4 167.03 1511.46 167.03C1514.66 167.03 1518.23 167.19 1522.17 167.509C1526.22 167.722 1529.57 168.095 1532.24 168.628V221.842C1529.79 220.989 1525.9 220.244 1520.57 219.604C1515.35 218.859 1510.29 218.486 1505.39 218.486C1494.84 218.486 1485.36 220.776 1476.95 225.357C1468.64 229.832 1462.09 236.064 1457.29 244.054C1452.5 252.044 1450.1 261.259 1450.1 271.7V416H1392.25ZM1624.02 272.179V416H1566.17V170.545H1621.46V212.254H1624.34C1629.98 198.511 1638.99 187.591 1651.34 179.494C1663.81 171.398 1679.2 167.349 1697.53 167.349C1714.47 167.349 1729.22 170.972 1741.79 178.216C1754.47 185.46 1764.27 195.954 1771.2 209.697C1778.23 223.44 1781.69 240.112 1781.58 259.714V416H1723.73V268.663C1723.73 252.257 1719.47 239.42 1710.95 230.151C1702.53 220.883 1690.87 216.249 1675.95 216.249C1665.83 216.249 1656.83 218.486 1648.95 222.96C1641.17 227.328 1635.04 233.667 1630.57 241.977C1626.2 250.286 1624.02 260.354 1624.02 272.179ZM1942.96 420.794C1918.99 420.794 1898.21 415.521 1880.63 404.974C1863.06 394.427 1849.42 379.672 1839.72 360.709C1830.14 341.746 1825.34 319.587 1825.34 294.232C1825.34 268.876 1830.14 246.664 1839.72 227.594C1849.42 208.525 1863.06 193.717 1880.63 183.17C1898.21 172.623 1918.99 167.349 1942.96 167.349C1966.93 167.349 1987.7 172.623 2005.28 183.17C2022.86 193.717 2036.44 208.525 2046.03 227.594C2055.72 246.664 2060.57 268.876 2060.57 294.232C2060.57 319.587 2055.72 341.746 2046.03 360.709C2036.44 379.672 2022.86 394.427 2005.28 404.974C1987.7 415.521 1966.93 420.794 1942.96 420.794ZM1943.28 374.452C1956.27 374.452 1967.14 370.883 1975.87 363.745C1984.61 356.501 1991.11 346.806 1995.37 334.661C1999.74 322.516 2001.92 308.987 2001.92 294.072C2001.92 279.05 1999.74 265.467 1995.37 253.322C1991.11 241.071 1984.61 231.323 1975.87 224.079C1967.14 216.835 1956.27 213.212 1943.28 213.212C1929.96 213.212 1918.88 216.835 1910.04 224.079C1901.3 231.323 1894.75 241.071 1890.38 253.322C1886.12 265.467 1883.99 279.05 1883.99 294.072C1883.99 308.987 1886.12 322.516 1890.38 334.661C1894.75 346.806 1901.3 356.501 1910.04 363.745C1918.88 370.883 1929.96 374.452 1943.28 374.452ZM2316.07 170.545L2228.65 416H2164.73L2077.32 170.545H2139.01L2195.42 352.879H2197.97L2254.54 170.545H2316.07ZM2415.2 420.954C2399.64 420.954 2385.63 418.184 2373.17 412.644C2360.81 406.998 2351.01 398.688 2343.77 387.715C2336.63 376.742 2333.06 363.212 2333.06 347.126C2333.06 333.276 2335.62 321.824 2340.73 312.768C2345.84 303.713 2352.82 296.469 2361.66 291.036C2370.51 285.602 2380.47 281.501 2391.55 278.731C2402.73 275.854 2414.29 273.777 2426.22 272.499C2440.61 271.007 2452.27 269.675 2461.22 268.504C2470.17 267.225 2476.67 265.308 2480.72 262.751C2484.87 260.087 2486.95 255.986 2486.95 250.446V249.487C2486.95 237.449 2483.38 228.127 2476.24 221.522C2469.1 214.917 2458.82 211.614 2445.4 211.614C2431.23 211.614 2419.99 214.704 2411.68 220.883C2403.48 227.062 2397.94 234.359 2395.06 242.776L2341.05 235.105C2345.31 220.19 2352.34 207.726 2362.14 197.712C2371.94 187.591 2383.93 180.027 2398.1 175.02C2412.27 169.906 2427.93 167.349 2445.08 167.349C2456.91 167.349 2468.68 168.734 2480.4 171.504C2492.11 174.274 2502.82 178.855 2512.52 185.247C2522.21 191.533 2529.99 200.109 2535.85 210.975C2541.81 221.842 2544.8 235.425 2544.8 251.724V416H2489.18V382.282H2487.27C2483.75 389.1 2478.8 395.492 2472.41 401.458C2466.12 407.317 2458.18 412.058 2448.6 415.68C2439.11 419.196 2427.98 420.954 2415.2 420.954ZM2430.22 378.447C2441.83 378.447 2451.9 376.156 2460.42 371.575C2468.94 366.888 2475.5 360.709 2480.08 353.038C2484.76 345.368 2487.11 337.005 2487.11 327.95V299.026C2485.3 300.517 2482.21 301.902 2477.84 303.18C2473.58 304.459 2468.78 305.577 2463.46 306.536C2458.13 307.495 2452.86 308.347 2447.64 309.093C2442.42 309.839 2437.89 310.478 2434.05 311.011C2425.42 312.183 2417.7 314.1 2410.88 316.763C2404.06 319.427 2398.68 323.156 2394.74 327.95C2390.8 332.637 2388.83 338.71 2388.83 346.167C2388.83 356.82 2392.72 364.864 2400.5 370.297C2408.27 375.73 2418.18 378.447 2430.22 378.447Z" fill="white"/>
<path d="M266.434 521.891C411.372 521.891 528.867 405.061 528.867 260.945C528.867 116.829 411.372 0 266.434 0C121.496 0 4 116.829 4 260.945C4 405.061 121.496 521.891 266.434 521.891Z" fill="url(#paint0_radial_0_1)"/>
<g opacity="0.98">
<path d="M118.818 123.281H304.795C373.675 123.281 408.115 157.526 408.115 226.016V400.664H222.139C153.258 400.664 118.818 366.419 118.818 297.93V123.281Z" stroke="#1E1E1E" stroke-width="25" stroke-linecap="round" stroke-linejoin="round"/>
<path d="M222.139 148.965V400.664" stroke="#1E1E1E" stroke-width="25" stroke-linecap="round" stroke-linejoin="round"/>
<path d="M268.633 231.152H356.455" stroke="#1E1E1E" stroke-width="25" stroke-linecap="round" stroke-linejoin="round"/>
<path d="M268.633 303.066H356.455" stroke="#1E1E1E" stroke-width="25" stroke-linecap="round" stroke-linejoin="round"/>
</g>
<defs>
<radialGradient id="paint0_radial_0_1" cx="0" cy="0" r="1" gradientUnits="userSpaceOnUse" gradientTransform="translate(266.434 260.945) scale(341.164 339.229)">
<stop stop-color="#81C784"/>
<stop offset="1" stop-color="#1B5E20"/>
</radialGradient>
</defs>
</svg>
