<svg width="426" height="114" viewBox="0 0 426 114" fill="none" xmlns="http://www.w3.org/2000/svg">
<path d="M169.443 72V37.0909H175.767V66.6989H191.142V72H169.443ZM207.469 72.5114C204.844 72.5114 202.577 71.9659 200.668 70.875C198.77 69.7727 197.31 68.2159 196.287 66.2045C195.264 64.1818 194.753 61.8011 194.753 59.0625C194.753 56.3693 195.264 54.0057 196.287 51.9716C197.321 49.9261 198.764 48.3352 200.617 47.1989C202.469 46.0511 204.645 45.4773 207.145 45.4773C208.759 45.4773 210.281 45.7386 211.713 46.2614C213.156 46.7727 214.429 47.5682 215.531 48.6477C216.645 49.7273 217.52 51.1023 218.156 52.7727C218.793 54.4318 219.111 56.4091 219.111 58.7045V60.5966H197.651V56.4375H213.196C213.185 55.2557 212.929 54.2045 212.429 53.2841C211.929 52.3523 211.23 51.6193 210.333 51.0852C209.446 50.5511 208.412 50.2841 207.23 50.2841C205.969 50.2841 204.861 50.5909 203.906 51.2045C202.952 51.8068 202.208 52.6023 201.673 53.5909C201.151 54.5682 200.884 55.642 200.872 56.8125V60.4432C200.872 61.9659 201.151 63.2727 201.708 64.3636C202.264 65.4432 203.043 66.2727 204.043 66.8523C205.043 67.4205 206.213 67.7045 207.554 67.7045C208.452 67.7045 209.264 67.5795 209.992 67.3295C210.719 67.0682 211.35 66.6875 211.884 66.1875C212.418 65.6875 212.821 65.0682 213.094 64.3295L218.855 64.9773C218.492 66.5 217.798 67.8295 216.776 68.9659C215.764 70.0909 214.469 70.9659 212.889 71.5909C211.31 72.2045 209.503 72.5114 207.469 72.5114ZM231.385 72.5284C229.726 72.5284 228.232 72.233 226.902 71.642C225.584 71.0398 224.539 70.1534 223.766 68.983C223.004 67.8125 222.624 66.3693 222.624 64.6534C222.624 63.1761 222.897 61.9545 223.442 60.9886C223.987 60.0227 224.732 59.25 225.675 58.6705C226.618 58.0909 227.681 57.6534 228.862 57.358C230.056 57.0511 231.289 56.8295 232.561 56.6932C234.095 56.5341 235.34 56.392 236.294 56.267C237.249 56.1307 237.942 55.9261 238.374 55.6534C238.817 55.3693 239.039 54.9318 239.039 54.3409V54.2386C239.039 52.9545 238.658 51.9602 237.897 51.2557C237.135 50.5511 236.039 50.1989 234.607 50.1989C233.095 50.1989 231.897 50.5284 231.01 51.1875C230.135 51.8466 229.544 52.625 229.237 53.5227L223.476 52.7045C223.931 51.1136 224.681 49.7841 225.726 48.7159C226.772 47.6364 228.05 46.8295 229.561 46.2955C231.073 45.75 232.743 45.4773 234.573 45.4773C235.834 45.4773 237.09 45.625 238.34 45.9205C239.59 46.2159 240.732 46.7045 241.766 47.3864C242.8 48.0568 243.629 48.9716 244.254 50.1307C244.891 51.2898 245.209 52.7386 245.209 54.4773V72H239.277V68.4034H239.073C238.698 69.1307 238.169 69.8125 237.487 70.4489C236.817 71.0739 235.97 71.5795 234.948 71.9659C233.936 72.3409 232.749 72.5284 231.385 72.5284ZM232.987 67.9943C234.226 67.9943 235.3 67.75 236.209 67.2614C237.118 66.7614 237.817 66.1023 238.306 65.2841C238.806 64.4659 239.056 63.5739 239.056 62.608V59.5227C238.862 59.6818 238.533 59.8295 238.067 59.9659C237.612 60.1023 237.101 60.2216 236.533 60.3239C235.965 60.4261 235.402 60.517 234.845 60.5966C234.289 60.6761 233.806 60.7443 233.397 60.8011C232.476 60.9261 231.652 61.1307 230.925 61.4148C230.198 61.6989 229.624 62.0966 229.203 62.608C228.783 63.108 228.573 63.7557 228.573 64.5511C228.573 65.6875 228.987 66.5455 229.817 67.125C230.647 67.7045 231.703 67.9943 232.987 67.9943ZM250.934 72V45.8182H256.917V50.1818H257.189C257.667 48.6705 258.485 47.5057 259.644 46.6875C260.814 45.858 262.149 45.4432 263.649 45.4432C263.99 45.4432 264.371 45.4602 264.792 45.4943C265.223 45.517 265.581 45.5568 265.865 45.6136V51.2898C265.604 51.1989 265.189 51.1193 264.621 51.0511C264.064 50.9716 263.524 50.9318 263.002 50.9318C261.877 50.9318 260.865 51.1761 259.968 51.6648C259.081 52.142 258.382 52.8068 257.871 53.6591C257.36 54.5114 257.104 55.4943 257.104 56.608V72H250.934ZM275.655 56.6591V72H269.485V45.8182H275.383V50.267H275.689C276.292 48.8011 277.252 47.6364 278.57 46.7727C279.9 45.9091 281.542 45.4773 283.496 45.4773C285.303 45.4773 286.877 45.8636 288.218 46.6364C289.57 47.4091 290.616 48.5284 291.354 49.9943C292.104 51.4602 292.473 53.2386 292.462 55.3295V72H286.292V56.2841C286.292 54.5341 285.837 53.1648 284.928 52.1761C284.03 51.1875 282.786 50.6932 281.195 50.6932C280.116 50.6932 279.155 50.9318 278.314 51.4091C277.485 51.875 276.831 52.5511 276.354 53.4375C275.888 54.3239 275.655 55.3977 275.655 56.6591ZM309.675 72.5114C307.118 72.5114 304.903 71.9489 303.028 70.8239C301.153 69.6989 299.698 68.125 298.664 66.1023C297.641 64.0795 297.13 61.7159 297.13 59.0114C297.13 56.3068 297.641 53.9375 298.664 51.9034C299.698 49.8693 301.153 48.2898 303.028 47.1648C304.903 46.0398 307.118 45.4773 309.675 45.4773C312.232 45.4773 314.448 46.0398 316.323 47.1648C318.198 48.2898 319.647 49.8693 320.67 51.9034C321.704 53.9375 322.221 56.3068 322.221 59.0114C322.221 61.7159 321.704 64.0795 320.67 66.1023C319.647 68.125 318.198 69.6989 316.323 70.8239C314.448 71.9489 312.232 72.5114 309.675 72.5114ZM309.709 67.5682C311.096 67.5682 312.255 67.1875 313.187 66.4261C314.118 65.6534 314.812 64.6193 315.266 63.3239C315.732 62.0284 315.965 60.5852 315.965 58.9943C315.965 57.392 315.732 55.9432 315.266 54.6477C314.812 53.3409 314.118 52.3011 313.187 51.5284C312.255 50.7557 311.096 50.3693 309.709 50.3693C308.289 50.3693 307.107 50.7557 306.164 51.5284C305.232 52.3011 304.533 53.3409 304.067 54.6477C303.613 55.9432 303.386 57.392 303.386 58.9943C303.386 60.5852 303.613 62.0284 304.067 63.3239C304.533 64.6193 305.232 65.6534 306.164 66.4261C307.107 67.1875 308.289 67.5682 309.709 67.5682ZM349.474 45.8182L340.15 72H333.332L324.008 45.8182H330.587L336.604 65.267H336.877L342.911 45.8182H349.474ZM360.048 72.5284C358.389 72.5284 356.894 72.233 355.565 71.642C354.247 71.0398 353.201 70.1534 352.428 68.983C351.667 67.8125 351.286 66.3693 351.286 64.6534C351.286 63.1761 351.559 61.9545 352.104 60.9886C352.65 60.0227 353.394 59.25 354.337 58.6705C355.281 58.0909 356.343 57.6534 357.525 57.358C358.718 57.0511 359.951 56.8295 361.224 56.6932C362.758 56.5341 364.002 56.392 364.957 56.267C365.911 56.1307 366.604 55.9261 367.036 55.6534C367.479 55.3693 367.701 54.9318 367.701 54.3409V54.2386C367.701 52.9545 367.32 51.9602 366.559 51.2557C365.798 50.5511 364.701 50.1989 363.269 50.1989C361.758 50.1989 360.559 50.5284 359.673 51.1875C358.798 51.8466 358.207 52.625 357.9 53.5227L352.139 52.7045C352.593 51.1136 353.343 49.7841 354.389 48.7159C355.434 47.6364 356.712 46.8295 358.224 46.2955C359.735 45.75 361.406 45.4773 363.235 45.4773C364.497 45.4773 365.752 45.625 367.002 45.9205C368.252 46.2159 369.394 46.7045 370.428 47.3864C371.462 48.0568 372.292 48.9716 372.917 50.1307C373.553 51.2898 373.872 52.7386 373.872 54.4773V72H367.94V68.4034H367.735C367.36 69.1307 366.832 69.8125 366.15 70.4489C365.479 71.0739 364.633 71.5795 363.61 71.9659C362.599 72.3409 361.411 72.5284 360.048 72.5284ZM361.65 67.9943C362.889 67.9943 363.962 67.75 364.872 67.2614C365.781 66.7614 366.479 66.1023 366.968 65.2841C367.468 64.4659 367.718 63.5739 367.718 62.608V59.5227C367.525 59.6818 367.195 59.8295 366.729 59.9659C366.275 60.1023 365.764 60.2216 365.195 60.3239C364.627 60.4261 364.065 60.517 363.508 60.5966C362.951 60.6761 362.468 60.7443 362.059 60.8011C361.139 60.9261 360.315 61.1307 359.587 61.4148C358.86 61.6989 358.286 62.0966 357.866 62.608C357.445 63.108 357.235 63.7557 357.235 64.5511C357.235 65.6875 357.65 66.5455 358.479 67.125C359.309 67.7045 360.366 67.9943 361.65 67.9943Z" fill="black"/>
<path d="M116.667 93.3376C137.47 93.6487 154.609 77.8338 154.947 58.0139C155.286 38.194 138.696 21.8746 117.893 21.5634C97.0898 21.2522 79.9513 37.0672 79.6128 56.8871C79.2744 76.707 95.8642 93.0264 116.667 93.3376Z" fill="url(#paint0_radial_1_83)"/>
<g opacity="0.98">
<path d="M96.6566 37L123.562 37.4024C133.527 37.5515 138.428 42.373 138.266 51.8669L137.852 76.0764L110.947 75.674C100.982 75.525 96.0811 70.7035 96.2432 61.2095L96.6566 37Z" stroke="white" stroke-width="5" stroke-linecap="round" stroke-linejoin="round"/>
<path d="M111.543 40.7838L110.947 75.6739" stroke="white" stroke-width="5" stroke-linecap="round" stroke-linejoin="round"/>
<path d="M118.075 52.2771L130.781 52.4672" stroke="white" stroke-width="5" stroke-linecap="round" stroke-linejoin="round"/>
<path d="M117.905 62.2458L130.61 62.4358" stroke="white" stroke-width="5" stroke-linecap="round" stroke-linejoin="round"/>
</g>
<defs>
<radialGradient id="paint0_radial_1_83" cx="0" cy="0" r="1" gradientTransform="matrix(48.9674 0.732423 -0.796662 46.6532 117.28 57.4505)" gradientUnits="userSpaceOnUse">
<stop stop-color="#81C784"/>
<stop offset="1" stop-color="#1B5E20"/>
</radialGradient>
</defs>
</svg>
